# Blender v2.78 (sub 0) OBJ File: ''
# www.blender.org
mtllib box4obj.mtl
o MSH_cube
v -4.000000 -0.056093 -4.000000
v 4.000000 0.832796 -4.000000
v 4.000000 -0.056093 -4.000000
v -4.000000 0.832796 -4.000000
v 0.100747 9.212910 -0.084111
v -0.100747 9.212910 0.084114
v 0.100747 9.212910 0.084114
v -0.100747 9.212910 -0.084111
v -4.000000 -0.056093 -4.000000
v -4.000000 0.832794 4.000000
v -4.000000 0.832796 -4.000000
v -4.000000 -0.056095 4.000000
v 4.000000 -0.056093 -4.000000
v 4.000000 0.832794 4.000000
v 4.000000 -0.056095 4.000000
v 4.000000 0.832796 -4.000000
v 3.099400 1.721681 -3.099400
v -3.099400 1.721681 -3.099400
v -3.099400 1.721680 3.099400
v -3.099400 1.721681 -3.099400
v 3.099400 1.721680 3.099400
v 3.099400 1.721681 -3.099400
v 3.099400 2.610570 -3.099400
v -3.099400 2.610570 -3.099400
v -3.099400 2.610569 3.099401
v -3.099400 2.610570 -3.099400
v 3.099400 2.610569 3.099401
v 3.099400 2.610570 -3.099400
v 4.000000 3.499461 -4.000000
v -4.000000 3.499461 -4.000000
v -4.000000 3.499459 4.000000
v -4.000000 3.499461 -4.000000
v 4.000000 3.499459 4.000000
v 4.000000 3.499461 -4.000000
v 4.000000 4.388350 -3.999999
v -4.000000 4.388350 -3.999999
v -4.000000 4.388350 4.000000
v -4.000000 4.388350 -3.999999
v 4.000000 4.388350 4.000000
v 4.000000 4.388350 -3.999999
v 3.118870 5.277240 -3.118869
v -3.118870 5.277240 -3.118869
v -3.118870 5.277239 3.118871
v -3.118870 5.277240 -3.118869
v 3.118870 5.277239 3.118871
v 3.118870 5.277240 -3.118869
v 3.118870 6.166131 -3.118869
v -3.118870 6.166131 -3.118869
v -3.118870 6.166130 3.118871
v -3.118870 6.166131 -3.118869
v 3.118870 6.166130 3.118871
v 3.118870 6.166131 -3.118869
v 4.000000 7.055020 -3.999999
v -4.000000 7.055020 -3.999999
v -4.000000 7.055019 4.000001
v -4.000000 7.055020 -3.999999
v 4.000000 7.055019 4.000001
v 4.000000 7.055020 -3.999999
v 4.000000 7.943911 -3.999999
v -4.000000 7.943911 -3.999999
v -4.000000 7.943910 4.000001
v -4.000000 7.943911 -3.999999
v 4.000000 7.943910 4.000001
v 4.000000 7.943911 -3.999999
v 1.581000 8.400910 0.000001
v 3.162000 8.400910 -1.580999
v 0.000000 8.400910 -1.580999
v 3.162000 8.400910 0.000001
v -4.000000 -0.056095 4.000000
v 4.000000 0.832794 4.000000
v -4.000000 0.832794 4.000000
v 4.000000 -0.056095 4.000000
v 3.099400 1.721680 3.099400
v -3.099400 1.721680 3.099400
v 3.099400 2.610569 3.099401
v -3.099400 2.610569 3.099401
v 4.000000 3.499459 4.000000
v -4.000000 3.499459 4.000000
v 4.000000 4.388350 4.000000
v -4.000000 4.388350 4.000000
v 3.118870 5.277239 3.118871
v -3.118870 5.277239 3.118871
v 3.118870 6.166130 3.118871
v -3.118870 6.166130 3.118871
v 4.000000 7.055019 4.000001
v -4.000000 7.055019 4.000001
v 4.000000 7.943910 4.000001
v -4.000000 7.943910 4.000001
v -4.000000 7.943911 -3.999999
v -3.162000 7.943910 3.162001
v -3.162000 7.943911 -3.161999
v -4.000000 7.943910 4.000001
v 3.162000 7.943910 3.162001
v 4.000000 7.943910 4.000001
v 3.162000 7.943911 -3.161999
v 4.000000 7.943911 -3.999999
v -3.162000 7.943911 -3.161999
v -3.162000 8.400909 3.162001
v -3.162000 8.400911 -3.161999
v -3.162000 7.943910 3.162001
v -3.162000 7.943910 3.162001
v 3.162000 8.400909 3.162001
v -3.162000 8.400909 3.162001
v 3.162000 7.943910 3.162001
v 3.162000 8.400911 -3.161999
v 3.162000 7.943910 3.162001
v 3.162000 7.943911 -3.161999
v 3.162000 8.400910 -1.580999
v 3.162000 8.400910 0.000001
v 3.162000 8.400909 3.162001
v 3.162000 7.943911 -3.161999
v -3.162000 8.400911 -3.161999
v 3.162000 8.400911 -3.161999
v -3.162000 7.943911 -3.161999
v -3.162000 8.400909 3.162001
v 3.162000 8.400909 3.162001
v 0.000000 8.400910 1.581001
v -1.581000 8.400910 0.000001
v 3.162000 8.400911 -3.161999
v -3.162000 8.400911 -3.161999
v -1.496890 8.857910 0.084113
v -0.100747 9.212910 0.084114
v -1.496890 9.212910 0.084114
v -0.100747 8.857910 0.084113
v -1.496890 8.857910 -0.084111
v -1.496890 9.212910 0.084114
v -1.496890 9.212910 -0.084111
v -1.496890 8.857910 0.084113
v -0.100747 8.857910 -0.084111
v -1.496890 9.212910 -0.084111
v -0.100747 9.212910 -0.084111
v -1.496890 8.857910 -0.084111
v -0.100747 8.857910 -0.084111
v -0.100747 8.857910 -1.480249
v -1.496890 8.857910 -0.084111
v -0.100747 8.857910 -1.480249
v -0.100747 9.212910 -0.084111
v -0.100747 9.212910 -1.480248
v -0.100747 8.857910 -0.084111
v 0.100747 8.857910 -1.480249
v -0.100747 9.212910 -1.480248
v 0.100747 9.212910 -1.480248
v -0.100747 8.857910 -1.480249
v 0.100747 8.857910 -0.084111
v 0.100747 9.212910 -1.480248
v 0.100747 9.212910 -0.084111
v 0.100747 8.857910 -1.480249
v -0.100747 8.857910 0.084113
v -1.496890 8.857910 0.084113
v -0.100747 8.857910 1.480251
v 1.496890 8.857910 -0.084111
v 0.100747 9.212910 -0.084111
v 1.496890 9.212910 -0.084111
v 0.100747 8.857910 -0.084111
v 1.496890 8.857910 0.084113
v 1.496890 9.212910 -0.084111
v 1.496890 9.212910 0.084114
v 1.496890 8.857910 -0.084111
v 0.100747 8.857910 0.084113
v 1.496890 9.212910 0.084114
v 0.100747 9.212910 0.084114
v 1.496890 8.857910 0.084113
v 0.100747 8.857910 1.480251
v 0.100747 9.212910 0.084114
v 0.100747 9.212910 1.480252
v 0.100747 8.857910 0.084113
v 0.100747 8.857910 0.084113
v 0.100747 8.857910 1.480251
v 1.496890 8.857910 0.084113
v -0.100747 8.857910 1.480251
v 0.100747 9.212910 1.480252
v -0.100747 9.212910 1.480252
v 0.100747 8.857910 1.480251
v -0.100747 8.857910 0.084113
v -0.100747 9.212910 1.480252
v -0.100747 9.212910 0.084114
v -0.100747 8.857910 1.480251
v -1.496890 9.212910 0.084114
v -1.496890 9.212910 -0.084111
v 0.100747 8.857910 -0.084111
v 1.496890 8.857910 -0.084111
v 0.100747 8.857910 -1.480249
v 1.496890 9.212910 -0.084111
v 1.496890 9.212910 0.084114
v -1.581000 8.400910 0.000001
v 0.000000 8.715430 -1.580999
v 0.000000 8.400910 -1.580999
v -1.581000 8.738950 0.000001
v 0.000000 8.400910 1.581001
v 0.000000 8.715430 1.581001
v 1.581000 8.400910 0.000001
v 1.581000 8.738950 0.000001
v 0.000000 8.715430 1.581001
v 0.000000 8.715430 -1.580999
v 0.100747 9.212910 1.480252
v -0.100747 9.212910 1.480252
v -0.100747 9.212910 -1.480248
v 0.100747 9.212910 -1.480248
vt 0.9826 0.4881
vt 0.5050 0.5412
vt 0.5050 0.4881
vt 0.9826 0.5412
vt 0.2546 0.2481
vt 0.2428 0.2382
vt 0.2546 0.2382
vt 0.2428 0.2481
vt 0.0048 0.4854
vt 0.4828 0.5390
vt 0.0048 0.5390
vt 0.4828 0.4854
vt 0.4847 0.4862
vt 0.0032 0.5397
vt 0.0032 0.4862
vt 0.4847 0.5397
vt 0.5588 0.5942
vt 0.9288 0.5942
vt 0.4290 0.5926
vt 0.0586 0.5926
vt 0.0574 0.5932
vt 0.4305 0.5932
vt 0.5588 0.6473
vt 0.9288 0.6473
vt 0.4290 0.6462
vt 0.0586 0.6462
vt 0.0574 0.6467
vt 0.4305 0.6467
vt 0.5050 0.7004
vt 0.9826 0.7004
vt 0.4828 0.6998
vt 0.0048 0.6998
vt 0.0032 0.7002
vt 0.4847 0.7002
vt 0.5050 0.7534
vt 0.9826 0.7534
vt 0.4828 0.7535
vt 0.0048 0.7535
vt 0.0032 0.7537
vt 0.4847 0.7537
vt 0.5576 0.8065
vt 0.9300 0.8065
vt 0.4301 0.8071
vt 0.0575 0.8071
vt 0.0562 0.8072
vt 0.4316 0.8072
vt 0.5576 0.8596
vt 0.9300 0.8596
vt 0.4301 0.8607
vt 0.0575 0.8607
vt 0.0562 0.8607
vt 0.4316 0.8607
vt 0.5050 0.9126
vt 0.9826 0.9126
vt 0.4828 0.9143
vt 0.0048 0.9143
vt 0.0032 0.9142
vt 0.4847 0.9142
vt 0.5050 0.9657
vt 0.9826 0.9657
vt 0.4828 0.9679
vt 0.0048 0.9679
vt 0.0032 0.9677
vt 0.4847 0.9677
vt 0.3415 0.2432
vt 0.4342 0.3359
vt 0.2487 0.3359
vt 0.4342 0.2432
vt 0.5029 0.4899
vt 0.9806 0.5426
vt 0.5029 0.5426
vt 0.9806 0.4899
vt 0.9268 0.5953
vt 0.5567 0.5953
vt 0.9268 0.6480
vt 0.5567 0.6480
vt 0.9806 0.7007
vt 0.5029 0.7007
vt 0.9806 0.7534
vt 0.5029 0.7534
vt 0.9279 0.8061
vt 0.5555 0.8061
vt 0.9279 0.8588
vt 0.5555 0.8588
vt 0.9806 0.9115
vt 0.5029 0.9115
vt 0.9806 0.9642
vt 0.5029 0.9642
vt 0.0140 0.4779
vt 0.0632 0.0576
vt 0.0632 0.4287
vt 0.0140 0.0085
vt 0.4342 0.0576
vt 0.4834 0.0085
vt 0.4342 0.4287
vt 0.4834 0.4779
vt 0.0549 0.9679
vt 0.4327 0.9955
vt 0.0549 0.9955
vt 0.4327 0.9679
vt 0.5530 0.9642
vt 0.9305 0.9913
vt 0.5530 0.9913
vt 0.9305 0.9642
vt 0.4342 0.9952
vt 0.0536 0.9677
vt 0.4342 0.9677
vt 0.3391 0.9952
vt 0.2439 0.9952
vt 0.0536 0.9952
vt 0.5550 0.9657
vt 0.9326 0.9930
vt 0.5550 0.9930
vt 0.9326 0.9657
vt 0.0632 0.0576
vt 0.4342 0.0576
vt 0.2487 0.1504
vt 0.1559 0.2432
vt 0.4342 0.4287
vt 0.0632 0.4287
vt 0.5398 0.4243
vt 0.7378 0.4746
vt 0.5398 0.4746
vt 0.7378 0.4243
vt 0.7621 0.4244
vt 0.7379 0.4730
vt 0.7621 0.4730
vt 0.7379 0.4244
vt 0.7378 0.4243
vt 0.5398 0.4746
vt 0.7378 0.4746
vt 0.5398 0.4243
vt 0.2428 0.2481
vt 0.2428 0.3300
vt 0.1609 0.2481
vt 0.9637 0.4244
vt 0.7621 0.4730
vt 0.9637 0.4730
vt 0.7621 0.4244
vt 0.7664 0.4243
vt 0.7378 0.4746
vt 0.7664 0.4746
vt 0.7378 0.4243
vt 0.7621 0.4244
vt 0.9637 0.4730
vt 0.7621 0.4730
vt 0.9637 0.4244
vt 0.2428 0.2382
vt 0.1609 0.2382
vt 0.2428 0.1563
vt 0.9643 0.4243
vt 0.7664 0.4746
vt 0.9643 0.4746
vt 0.7664 0.4243
vt 0.7379 0.4244
vt 0.7621 0.4730
vt 0.7379 0.4730
vt 0.7621 0.4244
vt 0.7664 0.4243
vt 0.9643 0.4746
vt 0.7664 0.4746
vt 0.9643 0.4243
vt 0.5363 0.4244
vt 0.7379 0.4730
vt 0.5363 0.4730
vt 0.7379 0.4244
vt 0.2546 0.2382
vt 0.2546 0.1563
vt 0.3365 0.2382
vt 0.7378 0.4243
vt 0.7664 0.4746
vt 0.7378 0.4746
vt 0.7664 0.4243
vt 0.7379 0.4244
vt 0.5363 0.4730
vt 0.7379 0.4730
vt 0.5363 0.4244
vt 0.1609 0.2382
vt 0.1609 0.2481
vt 0.2546 0.2481
vt 0.3365 0.2481
vt 0.2546 0.3300
vt 0.3365 0.2481
vt 0.3365 0.2382
vt 0.7500 0.3618
vt 0.9782 0.4049
vt 0.9782 0.3618
vt 0.7500 0.4081
vt 0.5218 0.3618
vt 0.5218 0.4049
vt 0.7500 0.3618
vt 0.7500 0.4081
vt 0.7521 0.4041
vt 0.7521 0.4041
vt 0.2546 0.1563
vt 0.2428 0.1563
vt 0.2428 0.3300
vt 0.2546 0.3300
vn 0.0000 0.0000 -1.0000
vn 0.0000 0.2547 -0.9670
vn -0.0000 0.5093 -0.8606
vn 0.0000 1.0000 0.0000
vn -1.0000 0.0000 0.0000
vn -0.9670 0.2547 0.0000
vn -0.8606 0.5093 -0.0000
vn 1.0000 0.0000 0.0000
vn 0.9670 0.2547 0.0000
vn 0.8606 0.5093 -0.0000
vn 0.0000 -0.2547 -0.9670
vn -0.0000 -0.5093 -0.8606
vn -0.9670 -0.2547 0.0000
vn -0.8606 -0.5093 -0.0000
vn 0.9670 -0.2547 0.0000
vn 0.8606 -0.5093 -0.0000
vn -0.8606 -0.5093 -0.0001
vn 0.0000 0.2514 -0.9679
vn 0.0000 0.5028 -0.8644
vn -0.9679 0.2514 0.0000
vn -0.8644 0.5028 0.0001
vn 0.9679 0.2514 0.0000
vn 0.8644 0.5028 0.0000
vn 0.0001 0.2514 -0.9679
vn -0.8644 0.5028 0.0000
vn -0.0001 -0.2514 -0.9679
vn -0.0000 -0.5028 -0.8644
vn -0.9679 -0.2514 -0.0000
vn -0.8644 -0.5028 -0.0000
vn 0.9679 -0.2514 -0.0001
vn 0.8644 -0.5028 -0.0000
vn 0.0000 -0.2514 -0.9679
vn 0.9679 -0.2514 -0.0000
vn 0.0000 0.0000 1.0000
vn -0.0000 0.2547 0.9670
vn 0.0001 0.5093 0.8606
vn 0.0000 0.5093 0.8606
vn 0.0000 -0.2547 0.9670
vn 0.0000 -0.5093 0.8606
vn -0.0001 -0.5093 0.8606
vn 0.0000 0.2514 0.9679
vn 0.0000 0.5028 0.8644
vn -0.0000 -0.2514 0.9679
vn 0.0000 -0.5028 0.8644
vn -0.9406 0.1284 -0.3144
vn -0.9040 0.1616 0.3957
vn -0.0000 0.2008 -0.9796
vn 0.0000 0.3029 -0.9530
vn 0.9406 0.1284 0.3144
vn 0.9040 0.1615 -0.3957
vn 0.0000 0.2008 0.9796
vn 0.0000 0.3029 0.9530
vn -0.8575 0.0002 -0.5145
vn -0.7071 0.0000 -0.7071
vn -0.9550 0.1877 0.2298
vn -0.7071 0.0000 0.7071
vn 0.8575 -0.0000 -0.5145
vn 0.9550 0.1877 0.2299
vn 0.7071 0.0000 0.7071
vn 0.7071 0.0000 -0.7071
vn 0.0000 0.5774 0.8165
vn 0.0000 0.5774 -0.8165
usemtl DefaultLib_Mater
s 1
f 1/1/1 2/2/2 3/3/1
f 1/1/1 4/4/3 2/2/2
f 5/5/4 6/6/4 7/7/4
f 5/5/4 8/8/4 6/6/4
f 9/9/5 10/10/6 11/11/7
f 9/9/5 12/12/5 10/10/6
f 13/13/8 14/14/9 15/15/8
f 13/13/8 16/16/10 14/14/9
f 4/4/3 17/17/3 2/2/2
f 4/4/3 18/18/2 17/17/3
f 11/11/7 19/19/7 20/20/6
f 11/11/7 10/10/6 19/19/7
f 16/16/10 21/21/10 14/14/9
f 16/16/10 22/22/9 21/21/10
f 18/18/2 23/23/11 17/17/3
f 18/18/2 24/24/12 23/23/11
f 20/20/6 25/25/13 26/26/14
f 20/20/6 19/19/7 25/25/13
f 22/22/9 27/27/15 21/21/10
f 22/22/9 28/28/16 27/27/15
f 24/24/12 29/29/12 23/23/11
f 24/24/12 30/30/11 29/29/12
f 26/26/14 31/31/17 32/32/13
f 26/26/14 25/25/13 31/31/17
f 28/28/16 33/33/16 27/27/15
f 28/28/16 34/34/15 33/33/16
f 30/30/11 35/35/18 29/29/12
f 30/30/11 36/36/19 35/35/18
f 32/32/13 37/37/20 38/38/21
f 32/32/13 31/31/17 37/37/20
f 34/34/15 39/39/22 33/33/16
f 34/34/15 40/40/23 39/39/22
f 36/36/19 41/41/19 35/35/18
f 36/36/19 42/42/24 41/41/19
f 38/38/21 43/43/25 44/44/20
f 38/38/21 37/37/20 43/43/25
f 40/40/23 45/45/23 39/39/22
f 40/40/23 46/46/22 45/45/23
f 42/42/24 47/47/26 41/41/19
f 42/42/24 48/48/27 47/47/26
f 44/44/20 49/49/28 50/50/29
f 44/44/20 43/43/25 49/49/28
f 46/46/22 51/51/30 45/45/23
f 46/46/22 52/52/31 51/51/30
f 48/48/27 53/53/27 47/47/26
f 48/48/27 54/54/32 53/53/27
f 50/50/29 55/55/29 56/56/28
f 50/50/29 49/49/28 55/55/29
f 52/52/31 57/57/31 51/51/30
f 52/52/31 58/58/33 57/57/31
f 54/54/32 59/59/1 53/53/27
f 54/54/32 60/60/1 59/59/1
f 56/56/28 61/61/5 62/62/5
f 56/56/28 55/55/29 61/61/5
f 58/58/33 63/63/8 57/57/31
f 58/58/33 64/64/8 63/63/8
f 65/65/4 66/66/4 67/67/4
f 65/65/4 68/68/4 66/66/4
f 69/69/34 70/70/35 71/71/36
f 69/69/34 72/72/34 70/70/35
f 71/71/36 73/73/37 74/74/35
f 71/71/36 70/70/35 73/73/37
f 74/74/35 75/75/38 76/76/39
f 74/74/35 73/73/37 75/75/38
f 76/76/39 77/77/40 78/78/38
f 76/76/39 75/75/38 77/77/40
f 78/78/38 79/79/41 80/80/42
f 78/78/38 77/77/40 79/79/41
f 80/80/42 81/81/42 82/82/41
f 80/80/42 79/79/41 81/81/42
f 82/82/41 83/83/43 84/84/44
f 82/82/41 81/81/42 83/83/43
f 84/84/44 85/85/44 86/86/43
f 84/84/44 83/83/43 85/85/44
f 86/86/43 87/87/34 88/88/34
f 86/86/43 85/85/44 87/87/34
f 89/89/4 90/90/4 91/91/4
f 89/89/4 92/92/4 90/90/4
f 92/92/4 93/93/4 90/90/4
f 92/92/4 94/94/4 93/93/4
f 94/94/4 95/95/4 93/93/4
f 94/94/4 96/96/4 95/95/4
f 96/96/4 91/91/4 95/95/4
f 96/96/4 89/89/4 91/91/4
f 97/97/5 98/98/5 99/99/5
f 97/97/5 100/100/5 98/98/5
f 101/101/34 102/102/34 103/103/34
f 101/101/34 104/104/34 102/102/34
f 105/105/8 106/106/8 107/107/8
f 108/108/8 106/106/8 105/105/8
f 109/109/8 106/106/8 108/108/8
f 110/110/8 106/106/8 109/109/8
f 111/111/1 112/112/1 113/113/1
f 111/111/1 114/114/1 112/112/1
f 115/115/4 116/116/4 117/117/4
f 68/68/4 117/117/4 116/116/4
f 65/65/4 117/117/4 68/68/4
f 118/118/4 115/115/4 117/117/4
f 119/119/4 67/67/4 66/66/4
f 120/120/4 67/67/4 119/119/4
f 120/120/4 118/118/4 67/67/4
f 120/120/4 115/115/4 118/118/4
f 121/121/34 122/122/34 123/123/34
f 121/121/34 124/124/34 122/122/34
f 125/125/45 126/126/5 127/127/5
f 125/125/45 128/128/46 126/126/5
f 129/129/1 130/130/1 131/131/1
f 129/129/1 132/132/1 130/130/1
f 133/133/4 134/134/4 135/135/4
f 136/136/5 137/137/5 138/138/5
f 136/136/5 139/139/5 137/137/5
f 140/140/47 141/141/1 142/142/1
f 140/140/47 143/143/48 141/141/1
f 144/144/8 145/145/8 146/146/8
f 144/144/8 147/147/8 145/145/8
f 148/148/4 149/149/4 150/150/4
f 151/151/1 152/152/1 153/153/1
f 151/151/1 154/154/1 152/152/1
f 155/155/49 156/156/8 157/157/8
f 155/155/49 158/158/50 156/156/8
f 159/159/34 160/160/34 161/161/34
f 159/159/34 162/162/34 160/160/34
f 163/163/8 164/164/8 165/165/8
f 163/163/8 166/166/8 164/164/8
f 167/167/4 168/168/4 169/169/4
f 170/170/51 171/171/34 172/172/34
f 170/170/51 173/173/52 171/171/34
f 174/174/5 175/175/5 176/176/5
f 174/174/5 177/177/5 175/175/5
f 178/178/4 8/8/4 179/179/4
f 178/178/4 6/6/4 8/8/4
f 180/180/4 181/181/4 182/182/4
f 7/7/4 183/183/4 5/5/4
f 7/7/4 184/184/4 183/183/4
f 185/185/53 186/186/1 187/187/1
f 185/185/53 136/136/54 186/186/1
f 136/136/54 185/185/53 125/125/45
f 188/188/55 125/125/45 185/185/53
f 189/189/34 188/188/55 185/185/53
f 189/189/34 128/128/46 188/188/55
f 128/128/46 189/189/34 177/177/56
f 190/190/34 177/177/56 189/189/34
f 191/191/57 192/192/58 189/189/34
f 192/192/58 155/155/49 189/189/34
f 163/163/59 189/189/34 155/155/49
f 190/190/34 189/189/34 163/163/59
f 187/187/1 186/186/1 191/191/57
f 186/186/1 147/147/60 191/191/57
f 158/158/50 191/191/57 147/147/60
f 192/192/58 191/191/57 158/158/50
f 170/170/51 193/193/61 173/173/52
f 140/140/47 194/194/62 143/143/48
f 6/6/4 195/195/4 7/7/4
f 6/6/4 196/196/4 195/195/4
f 5/5/4 197/197/4 8/8/4
f 5/5/4 198/198/4 197/197/4
f 155/155/49 192/192/58 158/158/50
f 125/125/45 188/188/55 128/128/46
