# Blender v2.78 (sub 0) OBJ File: ''
# www.blender.org
mtllib box5obj.mtl
o MSH_cylinder
v 0.347235 -0.136041 0.601426
v -0.347235 -0.136041 0.601426
v -0.347235 -0.264561 0.601426
v 0.347235 -0.264561 0.601426
v -0.694467 -0.136041 -0.000000
v -0.694467 0.166019 1.202850
v -1.388940 0.166019 -0.000000
v -1.041700 0.463299 1.804280
v -2.083400 0.463299 -0.000000
v -1.041700 0.740307 1.804280
v -2.083400 0.740307 -0.000000
v -0.700067 1.017319 1.212550
v -1.400130 1.017319 -0.000000
v -0.700067 1.294331 1.212550
v -1.400130 1.294331 -0.000000
v -1.041700 1.571343 1.804280
v -2.083400 1.571343 -0.000000
v -1.041700 1.848355 1.804280
v -2.083400 1.848355 0.000000
v -0.700140 2.030657 1.212680
v -1.400280 2.030657 0.000000
v -0.700140 2.307668 1.212680
v -1.400280 2.307668 0.000000
v -1.041700 2.415888 1.804280
v -2.083400 2.415888 0.000000
v -1.041700 2.692900 1.804280
v -2.083400 2.692900 0.000000
v -0.694467 2.901149 1.202850
v -1.388940 2.901149 0.000000
v -0.347235 3.350019 0.601426
v -0.694467 3.350019 0.000000
v -0.213326 3.484089 0.000000
v -0.106664 3.484089 0.184746
v 0.000000 3.531399 0.000000
v 0.694467 -0.136041 -0.000000
v 0.694467 -0.264561 -0.000000
v 0.694467 0.166019 1.202850
v 1.041700 0.463299 1.804280
v 1.041700 0.740307 1.804280
v 0.700067 1.017319 1.212550
v 0.700067 1.294331 1.212550
v 1.041700 1.571343 1.804280
v 1.041700 1.848355 1.804280
v 0.700140 2.030657 1.212680
v 0.700140 2.307668 1.212680
v 1.041700 2.415888 1.804280
v 1.041700 2.692900 1.804280
v 0.694467 2.901149 1.202850
v 0.347235 3.350019 0.601426
v 0.106664 3.484089 0.184746
v 0.347235 -0.136041 -0.601426
v 0.347235 -0.264561 -0.601426
v 1.388940 0.166019 -0.000000
v 2.083400 0.463299 -0.000000
v 2.083400 0.740307 -0.000000
v 1.400130 1.017319 -0.000000
v 1.400130 1.294331 -0.000000
v 2.083400 1.571343 -0.000000
v 2.083400 1.848355 0.000000
v 1.400280 2.030657 0.000000
v 1.400280 2.307668 0.000000
v 2.083400 2.415888 0.000000
v 2.083400 2.692900 0.000000
v 1.388940 2.901149 0.000000
v 0.694467 3.350019 0.000000
v 0.213326 3.484089 0.000000
v -0.347235 -0.136041 -0.601426
v -0.347235 -0.264561 -0.601426
v 0.694467 0.166019 -1.202850
v 1.041700 0.463299 -1.804280
v 1.041700 0.740307 -1.804280
v 0.700067 1.017319 -1.212550
v 0.700067 1.294331 -1.212550
v 1.041700 1.571343 -1.804280
v 1.041700 1.848355 -1.804280
v 0.700140 2.030657 -1.212680
v 0.700140 2.307668 -1.212680
v 1.041700 2.415888 -1.804280
v 1.041700 2.692900 -1.804280
v 0.694467 2.901149 -1.202850
v 0.347235 3.350019 -0.601426
v 0.106664 3.484089 -0.184746
v -0.694467 -0.264561 -0.000000
v -0.694467 0.166019 -1.202850
v -1.041700 0.463299 -1.804280
v -1.041700 0.740307 -1.804280
v -0.700067 1.017319 -1.212550
v -0.700067 1.294331 -1.212550
v -1.041700 1.571343 -1.804280
v -1.041700 1.848355 -1.804280
v -0.700140 2.030657 -1.212680
v -0.700140 2.307668 -1.212680
v -1.041700 2.415888 -1.804280
v -1.041700 2.692900 -1.804280
v -0.694467 2.901149 -1.202850
v -0.347235 3.350019 -0.601426
v -0.106664 3.484089 -0.184746
vt 0.9942 0.1341
vt 0.6426 0.1341
vt 0.6426 0.0591
vt 0.9942 0.0591
vt 0.2287 0.3863
vt 0.4423 0.3868
vt 0.5495 0.2020
vt 0.1223 0.2011
vt 0.1208 0.1998
vt 0.5480 0.2007
vt 0.6552 0.0159
vt 0.0144 0.0146
vt 0.0170 0.3956
vt 0.6063 0.3956
vt 0.6063 0.4723
vt 0.0170 0.4723
vt 0.9614 0.3831
vt 0.4646 0.3827
vt 0.5454 0.2467
vt 0.8823 0.2472
vt 0.5377 0.8156
vt 0.9699 0.8158
vt 0.9698 0.8955
vt 0.5376 0.8953
vt 0.9035 0.7584
vt 0.5684 0.7568
vt 0.4861 0.6186
vt 0.9846 0.6166
vt 0.4779 0.5315
vt 0.9842 0.5315
vt 0.9842 0.6082
vt 0.4779 0.6082
vt 0.9614 0.3831
vt 0.4646 0.3827
vt 0.5454 0.2467
vt 0.8823 0.2472
vt 0.5377 0.8156
vt 0.9699 0.8158
vt 0.9698 0.8955
vt 0.5376 0.8953
vt 0.9035 0.7584
vt 0.5684 0.7568
vt 0.4861 0.6186
vt 0.9846 0.6166
vt 0.4711 0.9094
vt 0.9934 0.9094
vt 0.9934 0.9941
vt 0.4711 0.9941
vt 0.0134 0.4829
vt 0.5084 0.4824
vt 0.4238 0.6279
vt 0.0961 0.6269
vt 0.3436 0.7710
vt 0.1796 0.7702
vt 0.2363 0.8718
vt 0.2869 0.8716
vt 0.2617 0.9163
vt 0.9925 0.1341
vt 0.6409 0.1341
vt 0.6409 0.0591
vt 0.9925 0.0591
vt 0.2286 0.3865
vt 0.4422 0.3865
vt 0.5490 0.2015
vt 0.1218 0.2015
vt 0.6558 0.0165
vt 0.0150 0.0165
vt 0.0170 0.3956
vt 0.6063 0.3956
vt 0.6063 0.4723
vt 0.0170 0.4723
vt 0.9614 0.3831
vt 0.4646 0.3827
vt 0.5454 0.2467
vt 0.8823 0.2472
vt 0.5377 0.8156
vt 0.9699 0.8158
vt 0.9698 0.8955
vt 0.5376 0.8953
vt 0.9035 0.7584
vt 0.5684 0.7568
vt 0.4861 0.6186
vt 0.9846 0.6166
vt 0.4818 0.5315
vt 0.9881 0.5315
vt 0.9881 0.6082
vt 0.4818 0.6082
vt 0.9614 0.3831
vt 0.4646 0.3827
vt 0.5454 0.2467
vt 0.8823 0.2472
vt 0.5377 0.8156
vt 0.9699 0.8158
vt 0.9698 0.8955
vt 0.5376 0.8953
vt 0.9035 0.7584
vt 0.5684 0.7568
vt 0.4861 0.6186
vt 0.9846 0.6166
vt 0.4702 0.9086
vt 0.9935 0.9086
vt 0.9935 0.9955
vt 0.4702 0.9955
vt 0.0134 0.4829
vt 0.5084 0.4824
vt 0.4238 0.6279
vt 0.0961 0.6269
vt 0.3436 0.7710
vt 0.1796 0.7702
vt 0.2363 0.8718
vt 0.2869 0.8716
vt 0.9942 0.1341
vt 0.6426 0.1341
vt 0.6426 0.0591
vt 0.9942 0.0591
vt 0.2284 0.3868
vt 0.4421 0.3863
vt 0.5485 0.2011
vt 0.1213 0.2020
vt 0.1222 0.1993
vt 0.5494 0.2011
vt 0.6570 0.0165
vt 0.0162 0.0139
vt 0.0170 0.3956
vt 0.6063 0.3956
vt 0.6063 0.4723
vt 0.0170 0.4723
vt 0.9614 0.3831
vt 0.4646 0.3827
vt 0.5454 0.2467
vt 0.8823 0.2472
vt 0.5377 0.8156
vt 0.9699 0.8158
vt 0.9698 0.8955
vt 0.5376 0.8953
vt 0.9035 0.7584
vt 0.5684 0.7568
vt 0.4861 0.6186
vt 0.9846 0.6166
vt 0.4777 0.5315
vt 0.9840 0.5315
vt 0.9840 0.6082
vt 0.4777 0.6082
vt 0.9614 0.3831
vt 0.4646 0.3827
vt 0.5454 0.2467
vt 0.8823 0.2472
vt 0.5377 0.8156
vt 0.9699 0.8158
vt 0.9698 0.8955
vt 0.5376 0.8953
vt 0.9035 0.7584
vt 0.5684 0.7568
vt 0.4861 0.6186
vt 0.9846 0.6166
vt 0.4693 0.9070
vt 0.9952 0.9070
vt 0.9952 0.9947
vt 0.4693 0.9947
vt 0.0134 0.4829
vt 0.5084 0.4824
vt 0.4238 0.6279
vt 0.0961 0.6269
vt 0.3436 0.7710
vt 0.1796 0.7702
vt 0.2363 0.8718
vt 0.2869 0.8716
vt 0.9942 0.1341
vt 0.6426 0.1341
vt 0.6426 0.0591
vt 0.9942 0.0591
vt 0.2292 0.3877
vt 0.4428 0.3855
vt 0.5477 0.1995
vt 0.1205 0.2038
vt 0.1224 0.2013
vt 0.5496 0.2022
vt 0.6568 0.0174
vt 0.0160 0.0161
vt 0.0170 0.3956
vt 0.6063 0.3956
vt 0.6063 0.4723
vt 0.0170 0.4723
vt 0.9614 0.3831
vt 0.4646 0.3827
vt 0.5454 0.2467
vt 0.8823 0.2472
vt 0.5377 0.8156
vt 0.9699 0.8158
vt 0.9698 0.8955
vt 0.5376 0.8953
vt 0.9035 0.7584
vt 0.5684 0.7568
vt 0.4861 0.6186
vt 0.9846 0.6166
vt 0.4816 0.5315
vt 0.9879 0.5315
vt 0.9879 0.6082
vt 0.4816 0.6082
vt 0.9614 0.3831
vt 0.4646 0.3827
vt 0.5454 0.2467
vt 0.8823 0.2472
vt 0.5377 0.8156
vt 0.9699 0.8158
vt 0.9698 0.8955
vt 0.5376 0.8953
vt 0.9035 0.7584
vt 0.5684 0.7568
vt 0.4861 0.6186
vt 0.9846 0.6166
vt 0.4712 0.9075
vt 0.9940 0.9075
vt 0.9940 0.9943
vt 0.4712 0.9943
vt 0.0134 0.4829
vt 0.5084 0.4824
vt 0.4238 0.6279
vt 0.0961 0.6269
vt 0.3436 0.7710
vt 0.1796 0.7702
vt 0.2363 0.8718
vt 0.2869 0.8716
vt 0.9925 0.1341
vt 0.6409 0.1341
vt 0.6409 0.0591
vt 0.9925 0.0591
vt 0.2280 0.3860
vt 0.4416 0.3874
vt 0.5496 0.2030
vt 0.1224 0.2004
vt 0.1212 0.1951
vt 0.5484 0.1977
vt 0.6564 0.0134
vt 0.0156 0.0095
vt 0.0170 0.3956
vt 0.6063 0.3956
vt 0.6063 0.4723
vt 0.0170 0.4723
vt 0.9614 0.3831
vt 0.4646 0.3827
vt 0.5454 0.2467
vt 0.8823 0.2472
vt 0.5377 0.8156
vt 0.9699 0.8158
vt 0.9698 0.8955
vt 0.5376 0.8953
vt 0.9035 0.7584
vt 0.5684 0.7568
vt 0.4861 0.6186
vt 0.9846 0.6166
vt 0.4781 0.5315
vt 0.9844 0.5315
vt 0.9844 0.6082
vt 0.4781 0.6082
vt 0.9614 0.3831
vt 0.4646 0.3827
vt 0.5454 0.2467
vt 0.8823 0.2472
vt 0.5377 0.8156
vt 0.9699 0.8158
vt 0.9698 0.8955
vt 0.5376 0.8953
vt 0.9035 0.7584
vt 0.5684 0.7568
vt 0.4861 0.6186
vt 0.9846 0.6166
vt 0.4727 0.9074
vt 0.9951 0.9074
vt 0.9951 0.9935
vt 0.4727 0.9935
vt 0.0134 0.4829
vt 0.5084 0.4824
vt 0.4238 0.6279
vt 0.0961 0.6269
vt 0.3436 0.7710
vt 0.1796 0.7702
vt 0.2363 0.8718
vt 0.2869 0.8716
vt 0.9942 0.1341
vt 0.6426 0.1341
vt 0.6426 0.0591
vt 0.9942 0.0591
vt 0.2286 0.3862
vt 0.4422 0.3871
vt 0.5497 0.2025
vt 0.1225 0.2008
vt 0.1212 0.2022
vt 0.5484 0.2013
vt 0.6548 0.0161
vt 0.0140 0.0174
vt 0.0170 0.3956
vt 0.6063 0.3956
vt 0.6063 0.4723
vt 0.0170 0.4723
vt 0.9614 0.3831
vt 0.4646 0.3827
vt 0.5454 0.2467
vt 0.8823 0.2472
vt 0.5377 0.8156
vt 0.9699 0.8158
vt 0.9698 0.8955
vt 0.5376 0.8953
vt 0.9035 0.7584
vt 0.5684 0.7568
vt 0.4861 0.6186
vt 0.9846 0.6166
vt 0.4820 0.5315
vt 0.9883 0.5315
vt 0.9883 0.6082
vt 0.4820 0.6082
vt 0.9614 0.3831
vt 0.4646 0.3827
vt 0.5454 0.2467
vt 0.8823 0.2472
vt 0.5377 0.8156
vt 0.9699 0.8158
vt 0.9698 0.8955
vt 0.5376 0.8953
vt 0.9035 0.7584
vt 0.5684 0.7568
vt 0.4861 0.6186
vt 0.9846 0.6166
vt 0.4716 0.9068
vt 0.9945 0.9068
vt 0.9945 0.9969
vt 0.4716 0.9969
vt 0.0134 0.4829
vt 0.5084 0.4824
vt 0.4238 0.6279
vt 0.0961 0.6269
vt 0.3436 0.7710
vt 0.1796 0.7702
vt 0.2363 0.8718
vt 0.2869 0.8716
vn 0.4977 -0.0947 0.8622
vn -0.4978 -0.0947 0.8621
vn 0.0000 0.0000 1.0000
vn -0.9955 -0.0947 0.0000
vn -0.4895 -0.2031 0.8480
vn -0.9792 -0.2031 -0.0001
vn -0.4977 -0.0960 0.8620
vn -0.9954 -0.0960 -0.0000
vn -0.4975 0.1004 0.8616
vn -0.9949 0.1004 0.0000
vn -0.4975 -0.1004 0.8616
vn -0.9949 -0.1004 -0.0001
vn -0.9949 -0.1004 -0.0000
vn -0.4952 0.1388 0.8576
vn -0.9903 0.1388 0.0000
vn -0.4952 0.1387 0.8576
vn -0.9903 0.1387 0.0000
vn -0.4908 -0.1901 0.8503
vn -0.9818 -0.1901 -0.0001
vn -0.4909 -0.1901 0.8502
vn -0.9818 -0.1901 -0.0002
vn -0.4959 0.1275 0.8590
vn -0.9918 0.1275 -0.0000
vn -0.4893 0.2058 0.8475
vn -0.9786 0.2058 0.0000
vn -0.4885 0.2140 0.8459
vn -0.9768 0.2140 0.0000
vn -0.9409 0.3387 -0.0001
vn -0.4704 0.3387 0.8149
vn 0.0000 1.0000 0.0000
vn 0.9955 -0.0947 0.0000
vn 0.8660 0.0000 0.5000
vn 1.0000 0.0000 0.0000
vn 0.4896 -0.2031 0.8479
vn 0.4977 -0.0960 0.8620
vn 0.4975 0.1004 0.8617
vn 0.4974 0.1004 0.8617
vn 0.4974 -0.1004 0.8617
vn 0.4975 -0.1004 0.8617
vn 0.4951 0.1388 0.8577
vn 0.4951 0.1387 0.8577
vn 0.4909 -0.1901 0.8502
vn 0.4959 0.1275 0.8590
vn 0.4892 0.2058 0.8475
vn 0.4884 0.2140 0.8460
vn 0.4705 0.3387 0.8148
vn 0.4978 -0.0947 -0.8621
vn 0.8660 0.0000 -0.5000
vn 0.9792 -0.2031 -0.0001
vn 0.9954 -0.0960 0.0000
vn 0.9949 0.1004 0.0000
vn 0.9949 -0.1004 0.0000
vn 0.9903 0.1388 0.0000
vn 0.9903 0.1387 0.0000
vn 0.9818 -0.1901 -0.0000
vn 0.9918 0.1275 0.0000
vn 0.9786 0.2058 0.0001
vn 0.9768 0.2140 0.0001
vn 0.9409 0.3387 -0.0001
vn -0.4977 -0.0947 -0.8622
vn 0.0000 0.0000 -1.0000
vn 0.4895 -0.2031 -0.8480
vn 0.4977 -0.0960 -0.8620
vn 0.4975 0.1004 -0.8616
vn 0.4975 -0.1004 -0.8616
vn 0.4952 0.1388 -0.8576
vn 0.4952 0.1387 -0.8576
vn 0.4908 -0.1901 -0.8503
vn 0.4909 -0.1901 -0.8502
vn 0.4959 0.1275 -0.8590
vn 0.4893 0.2058 -0.8475
vn 0.4885 0.2140 -0.8459
vn 0.4704 0.3387 -0.8149
vn -0.8660 0.0000 -0.5000
vn -1.0000 0.0000 0.0000
vn -0.4896 -0.2031 -0.8479
vn -0.4977 -0.0960 -0.8620
vn -0.4975 0.1004 -0.8617
vn -0.4974 0.1004 -0.8617
vn -0.4974 -0.1004 -0.8617
vn -0.4975 -0.1004 -0.8617
vn -0.4951 0.1388 -0.8577
vn -0.4951 0.1387 -0.8577
vn -0.4909 -0.1901 -0.8502
vn -0.4959 0.1275 -0.8590
vn -0.4892 0.2058 -0.8475
vn -0.4884 0.2140 -0.8460
vn -0.4705 0.3387 -0.8148
vn -0.8660 0.0000 0.5000
usemtl DefaultLib_Scene_Material
s 1
f 1/1/1 2/2/2 3/3/3 4/4/3
f 5/5/4 2/6/2 6/7/5 7/8/6
f 7/9/6 6/10/5 8/11/7 9/12/8
f 9/13/8 8/14/7 10/15/9 11/16/10
f 11/17/10 10/18/9 12/19/9 13/20/10
f 13/21/10 12/22/9 14/23/11 15/24/12
f 15/25/12 14/26/11 16/27/11 17/28/13
f 17/29/13 16/30/11 18/31/14 19/32/15
f 19/33/15 18/34/14 20/35/16 21/36/17
f 21/37/17 20/38/16 22/39/18 23/40/19
f 23/41/19 22/42/18 24/43/20 25/44/21
f 25/45/21 24/46/20 26/47/22 27/48/23
f 27/49/23 26/50/22 28/51/24 29/52/25
f 29/52/25 28/51/24 30/53/26 31/54/27
f 32/55/28 33/56/29 34/57/30
f 35/58/31 1/59/1 4/60/32 36/61/33
f 2/62/2 1/63/1 37/64/34 6/65/5
f 6/65/5 37/64/34 38/66/35 8/67/7
f 8/68/7 38/69/35 39/70/36 10/71/9
f 10/72/9 39/73/36 40/74/37 12/75/9
f 12/76/9 40/77/37 41/78/38 14/79/11
f 14/80/11 41/81/38 42/82/39 16/83/11
f 16/84/11 42/85/39 43/86/40 18/87/14
f 18/88/14 43/89/40 44/90/41 20/91/16
f 20/92/16 44/93/41 45/94/42 22/95/18
f 22/96/18 45/97/42 46/98/42 24/99/20
f 24/100/20 46/101/42 47/102/43 26/103/22
f 26/104/22 47/105/43 48/106/44 28/107/24
f 28/107/24 48/106/44 49/108/45 30/109/26
f 33/110/29 50/111/46 34/57/30
f 51/112/47 35/113/31 36/114/33 52/115/48
f 1/116/1 35/117/31 53/118/49 37/119/34
f 37/120/34 53/121/49 54/122/50 38/123/35
f 38/124/35 54/125/50 55/126/51 39/127/36
f 39/128/36 55/129/51 56/130/51 40/131/37
f 40/132/37 56/133/51 57/134/52 41/135/38
f 41/136/38 57/137/52 58/138/52 42/139/39
f 42/140/39 58/141/52 59/142/53 43/143/40
f 43/144/40 59/145/53 60/146/54 44/147/41
f 44/148/41 60/149/54 61/150/55 45/151/42
f 45/152/42 61/153/55 62/154/55 46/155/42
f 46/156/42 62/157/55 63/158/56 47/159/43
f 47/160/43 63/161/56 64/162/57 48/163/44
f 48/163/44 64/162/57 65/164/58 49/165/45
f 50/166/46 66/167/59 34/57/30
f 67/168/60 51/169/47 52/170/61 68/171/61
f 35/172/31 51/173/47 69/174/62 53/175/49
f 53/176/49 69/177/62 70/178/63 54/179/50
f 54/180/50 70/181/63 71/182/64 55/183/51
f 55/184/51 71/185/64 72/186/64 56/187/51
f 56/188/51 72/189/64 73/190/65 57/191/52
f 57/192/52 73/193/65 74/194/65 58/195/52
f 58/196/52 74/197/65 75/198/66 59/199/53
f 59/200/53 75/201/66 76/202/67 60/203/54
f 60/204/54 76/205/67 77/206/68 61/207/55
f 61/208/55 77/209/68 78/210/69 62/211/55
f 62/212/55 78/213/69 79/214/70 63/215/56
f 63/216/56 79/217/70 80/218/71 64/219/57
f 64/219/57 80/218/71 81/220/72 65/221/58
f 66/222/59 82/223/73 34/57/30
f 5/224/4 67/225/60 68/226/74 83/227/75
f 51/228/47 67/229/60 84/230/76 69/231/62
f 69/232/62 84/233/76 85/234/77 70/235/63
f 70/236/63 85/237/77 86/238/78 71/239/64
f 71/240/64 86/241/78 87/242/79 72/243/64
f 72/244/64 87/245/79 88/246/80 73/247/65
f 73/248/65 88/249/80 89/250/81 74/251/65
f 74/252/65 89/253/81 90/254/82 75/255/66
f 75/256/66 90/257/82 91/258/83 76/259/67
f 76/260/67 91/261/83 92/262/84 77/263/68
f 77/264/68 92/265/84 93/266/84 78/267/69
f 78/268/69 93/269/84 94/270/85 79/271/70
f 79/272/70 94/273/85 95/274/86 80/275/71
f 80/275/71 95/274/86 96/276/87 81/277/72
f 82/278/73 97/279/88 34/57/30
f 2/280/2 5/281/4 83/282/75 3/283/89
f 67/284/60 5/285/4 7/286/6 84/287/76
f 84/288/76 7/289/6 9/290/8 85/291/77
f 85/292/77 9/293/8 11/294/10 86/295/78
f 86/296/78 11/297/10 13/298/10 87/299/79
f 87/300/79 13/301/10 15/302/12 88/303/80
f 88/304/80 15/305/12 17/306/13 89/307/81
f 89/308/81 17/309/13 19/310/15 90/311/82
f 90/312/82 19/313/15 21/314/17 91/315/83
f 91/316/83 21/317/17 23/318/19 92/319/84
f 92/320/84 23/321/19 25/322/21 93/323/84
f 93/324/84 25/325/21 27/326/23 94/327/85
f 94/328/85 27/329/23 29/330/25 95/331/86
f 95/331/86 29/330/25 31/332/27 96/333/87
f 97/334/88 32/335/28 34/57/30
f 31/54/27 30/53/26 33/56/29 32/55/28
f 30/109/26 49/108/45 50/111/46 33/110/29
f 49/165/45 65/164/58 66/167/59 50/166/46
f 65/221/58 81/220/72 82/223/73 66/222/59
f 81/277/72 96/276/87 97/279/88 82/278/73
f 96/333/87 31/332/27 32/335/28 97/334/88
